<?xml version="1.0" encoding="utf-8"?>
<!-- Generator: Adobe Illustrator 25.2.2, SVG Export Plug-In . SVG Version: 6.00 Build 0)  -->
<svg version="1.1" id="Livello_1" xmlns="http://www.w3.org/2000/svg" xmlns:xlink="http://www.w3.org/1999/xlink" x="0px" y="0px"
	 viewBox="0 0 271.4 88.4" style="enable-background:new 0 0 271.4 88.4;" xml:space="preserve">
<style type="text/css">
	.st0{fill:#FFFFFF;}
	.st1{fill:#F089A5;}
	.st2{fill:#73C3B4;}
	.st3{fill:#4B62AB;}
	.st4{fill:#FFFFFF;stroke:#000000;stroke-miterlimit:10;}
</style>
<rect x="-5.5" y="-4" class="st0" width="282.1" height="96"/>
<path class="st1" d="M0,76.9L28.5,0h21.7l14.5,11.1l28.7,77.2H72.1L58.8,77.2l-1.4-4h-24l-5.2,15.1H10.3L0,76.9z M26.7,86.4
	l5.2-15.1h24.7l-3.1-8.8H25.3L20,77.6H3.2l8,8.8H26.7z M40.3,45.7l4.2-11.1l-5-13.5l-9.1,24.6H40.3z M48.6,45.7l-3.1-8.4l-3.1,8.4
	H48.6z M90.6,86.4L63.1,12.3L52,3.8l27.4,73.8H62.3l10.6,8.8H90.6z"/>
<path class="st2" d="M94.2,77V0h28.4l14.5,11.7l6.8,23.9L155.6,0h28.3l11.9,11.3v77.1h-18.3L166,77.1V56.7l-10.8,31.7h-15l-9-11.3
	l-8.3-23.5v34.9h-17.4L94.2,77z M120.9,86.4V48l-7.3-20.8l-0.9-3v53.4H97.5l8.8,8.8L120.9,86.4z M142.9,39l-7.5-26.2l-11.2-9
	L139.3,50L142.9,39z M153.9,86.4L166,50.6V23.8l-1,3.4v0l-17.8,50.4h-13.1l7.1,8.8L153.9,86.4z M193.9,86.4V12.2l-9.4-8.9v74.4
	h-15.2l8.9,8.8L193.9,86.4z"/>
<path class="st3" d="M206.7,77V0H260l11.4,11.4v16.3h-34.7v4.8h17.5l11.4,11.4v16.6h-28.9v28h-18.6L206.7,77z M234.8,86.4v-28h28.9
	V44.5l-8.8-8.8v14.4h-29.4v27.5H210l8.8,8.8L234.8,86.4z M234.8,32.4v-6.7h34.7V12.1l-8.8-8.8V18h-35.2v14.4L234.8,32.4z"/>
<rect x="-72.1" y="144.6" class="st4" width="268.2" height="98"/>
</svg>
