<svg id="Livello_1" data-name="Livello 1" xmlns="http://www.w3.org/2000/svg" viewBox="0 0 271.4 88.38"><defs><style>.cls-1{fill:#f089a5;}.cls-2{fill:#73c3b4;}.cls-3{fill:#4b62ab;}</style></defs><path class="cls-1" d="M0,76.86,28.48,0H50.21L64.75,11.14l28.7,77.24H72.1L58.75,77.24l-1.41-4h-24L28.1,88.38H10.32Zm26.7,9.57L31.94,71.3H56.69l-3.08-8.81H25.29L20.05,77.62H3.24l8,8.81Zm13.62-40.7L44.48,34.6l-5-13.46L30.37,45.73Zm8.27,0-3.08-8.37-3.08,8.37Zm42.05,40.7L63.13,12.33,52.05,3.79l27.4,73.83H62.26l10.59,8.81Z"/><path class="cls-2" d="M94.16,77V0h28.43l14.54,11.73,6.81,23.94L155.61,0h28.32l11.89,11.3V88.38H177.5L166,77.08V56.65L155.23,88.38h-15l-9-11.35-8.32-23.51V88.38H105.51Zm26.75,9.4V48l-7.35-20.75-.86-3V77.62H97.46l8.81,8.81Zm22-47.4L135.4,12.82l-11.19-9L139.29,50Zm11,47.4L166,50.6V23.79l-1,3.41v.05L147.18,77.62H134.1l7.08,8.81Zm40,0V12.17l-9.35-8.92V77.62H169.39l8.87,8.81Z"/><path class="cls-3" d="M206.7,77V0H260l11.35,11.35V27.63H236.7v4.81h17.51l11.35,11.35V60.38H236.7v28H218.05Zm28.05,9.4v-28h28.86V44.54l-8.81-8.81V50.17H225.4V77.62H210l8.81,8.81Zm0-54V25.68h34.7V12.12l-8.81-8.81V18H225.4V32.44Z"/></svg>