<?xml version="1.0" encoding="utf-8"?>
<!-- Generator: Adobe Illustrator 25.2.2, SVG Export Plug-In . SVG Version: 6.00 Build 0)  -->
<svg version="1.1" id="Livello_1" xmlns="http://www.w3.org/2000/svg" xmlns:xlink="http://www.w3.org/1999/xlink" x="0px" y="0px"
	 viewBox="0 0 79.7 43.1" style="enable-background:new 0 0 79.7 43.1;" xml:space="preserve">
<style type="text/css">
	.st0{fill:#EF88A4;}
	.st1{fill:#F9B750;}
	.st2{fill:#72C2B3;}
	.st3{fill:#4B62AA;}
	.st4{fill:#C99642;}
	.st5{fill:#5B9B8F;}
	.st6{fill:#38487C;}
	.st7{fill:#FFFFFF;}
</style>
<path class="st0" d="M-63.2,3.6c-6.9,0.7-11.4-1.9-19.6-0.5c-6.6,1.1-10.2,4.2-11,5.4c-2.2,3.3-1.6,4.6-3.9,12.3
	c-3.3,11-0.1,10.8,1.1,13.5c0.8,1.7-2.7,5.8,14.5,6.4c21.5,0.8,20.9-2.6,31.9-0.5c8.5,1.6,15.1,4.8,20.5,1.1
	c1.8-1.2,2.9-2.8,4.3-4.8c1.3-1.9,4.9-7.1,5-13.8c0-1.8-1-5.5-3-12.8c-1.1-3.8-2.3-6.8-6.9-7c-10.4-0.4-14.4,6.6-21.8,0.8
	c-1.2-0.9-3.1-1.6-5.4-1.2C-60.1,3-60.9,3.4-63.2,3.6z"/>
<path class="st1" d="M-89.6,29.4l6.4-17.3h4.9l3.3,2.5l6.4,17.4h-4.8l-3-2.5l-0.3-0.9h-5.4l-1.2,3.4h-4L-89.6,29.4z M-83.6,31.6
	l1.2-3.4h5.6l-0.7-2h-6.4l-1.2,3.4h-3.8l1.8,2H-83.6z M-80.6,22.4l0.9-2.5l-1.1-3l-2.1,5.5H-80.6z M-78.7,22.4l-0.7-1.9l-0.7,1.9
	H-78.7z M-69.2,31.6l-6.2-16.6l-2.5-1.9l6.2,16.6h-3.9l2.4,2H-69.2z"/>
<path class="st2" d="M-68.5,29.5V12.2h6.4l3.3,2.6l1.5,5.4l2.6-8h6.4l2.7,2.5V32h-4.1l-2.6-2.5v-4.6l-2.4,7.1h-3.4l-2-2.6l-1.9-5.3
	V32h-3.9L-68.5,29.5z M-62.4,31.6v-8.6l-1.7-4.7l-0.2-0.7v12h-3.4l2,2H-62.4z M-57.5,20.9l-1.7-5.9l-2.5-2l3.4,10.4L-57.5,20.9z
	 M-55,31.6l2.7-8.1v-6l-0.2,0.8v0l-4,11.3h-2.9l1.6,2H-55z M-46,31.6V14.9l-2.1-2v16.7h-3.4l2,2H-46z"/>
<path class="st3" d="M-43.2,29.5V12.2h12l2.6,2.6v3.7h-7.8v1.1h3.9l2.6,2.6v3.7h-6.5V32h-4.2L-43.2,29.5z M-36.9,31.6v-6.3h6.5v-3.1
	l-2-2v3.2H-39v6.2h-3.5l2,2H-36.9z M-36.9,19.4v-1.5h7.8v-3l-2-2v3.3H-39v3.3H-36.9z"/>
<rect x="-149.7" y="-4.5" class="st0" width="31.7" height="31.7"/>
<rect x="-149.7" y="27.2" class="st3" width="31.7" height="31.7"/>
<rect x="-149.7" y="59" class="st2" width="31.7" height="31.7"/>
<polygon class="st4" points="-83.6,31.6 -82.4,28.2 -76.9,28.2 -77.6,26.2 -83.9,26.2 -85.1,29.6 -88.9,29.6 -87.1,31.6 "/>
<polygon class="st4" points="-80.6,22.4 -79.6,19.9 -80.7,16.9 -82.8,22.4 "/>
<polygon class="st4" points="-78.7,22.4 -79.4,20.6 -80.1,22.4 "/>
<polygon class="st4" points="-69.2,31.6 -75.4,14.9 -77.9,13 -71.8,29.6 -75.6,29.6 -73.2,31.6 "/>
<polygon class="st5" points="-62.4,31.6 -62.4,22.9 -64.1,18.3 -64.3,17.6 -64.3,29.6 -67.7,29.6 -65.7,31.6 "/>
<polygon class="st5" points="-57.5,20.9 -59.2,15 -61.7,13 -58.3,23.4 "/>
<polygon class="st5" points="-55,31.6 -52.3,23.5 -52.3,17.5 -52.5,18.3 -52.5,18.3 -56.5,29.6 -59.5,29.6 -57.9,31.6 "/>
<polygon class="st5" points="-46,31.6 -46,14.9 -48.1,12.9 -48.1,29.6 -51.5,29.6 -49.6,31.6 "/>
<polygon class="st6" points="-36.9,31.6 -36.9,25.3 -30.4,25.3 -30.4,22.2 -32.4,20.2 -32.4,23.4 -39,23.4 -39,29.6 -42.4,29.6 
	-40.4,31.6 "/>
<polygon class="st6" points="-36.9,19.4 -36.9,17.9 -29.1,17.9 -29.1,14.9 -31,12.9 -31,16.2 -39,16.2 -39,19.4 "/>
<path class="st0" d="M36.5,3.6c-6.9,0.7-11.4-1.9-19.6-0.5c-6.6,1.1-10.2,4.2-11,5.4C3.7,11.8,4.3,13.1,2,20.8
	c-3.3,11-0.1,10.8,1.1,13.5c0.8,1.7-2.7,5.8,14.5,6.4c21.5,0.8,20.9-2.6,31.9-0.5c8.5,1.6,15.1,4.8,20.5,1.1
	c1.8-1.2,2.9-2.8,4.3-4.8c1.3-1.9,4.9-7.1,5-13.8c0-1.8-1-5.5-3-12.8c-1.1-3.8-2.3-6.8-6.9-7C58.9,2.6,54.9,9.6,47.6,3.9
	c-1.2-0.9-3.1-1.6-5.4-1.2C39.6,3,38.8,3.4,36.5,3.6z"/>
<path class="st1" d="M10.1,29.4l6.4-17.3h4.9l3.3,2.5L31.1,32h-4.8l-3-2.5L23,28.6h-5.4L16.4,32h-4L10.1,29.4z M16.1,31.6l1.2-3.4
	h5.6l-0.7-2h-6.4l-1.2,3.4h-3.8l1.8,2H16.1z M19.1,22.4l0.9-2.5l-1.1-3l-2.1,5.5H19.1z M21,22.4l-0.7-1.9l-0.7,1.9H21z M30.5,31.6
	l-6.2-16.6L21.8,13l6.2,16.6h-3.9l2.4,2H30.5z"/>
<path class="st2" d="M31.2,29.5V12.2h6.4l3.3,2.6l1.5,5.4l2.6-8h6.4l2.7,2.5V32H50l-2.6-2.5v-4.6L45,32h-3.4l-2-2.6l-1.9-5.3V32
	h-3.9L31.2,29.5z M37.3,31.6v-8.6l-1.7-4.7l-0.2-0.7v12H32l2,2H37.3z M42.2,20.9L40.5,15L38,13l3.4,10.4L42.2,20.9z M44.7,31.6
	l2.7-8.1v-6l-0.2,0.8v0l-4,11.3h-2.9l1.6,2H44.7z M53.6,31.6V14.9l-2.1-2v16.7h-3.4l2,2H53.6z"/>
<path class="st3" d="M56.5,29.5V12.2h12l2.6,2.6v3.7h-7.8v1.1h3.9l2.6,2.6v3.7h-6.5V32h-4.2L56.5,29.5z M62.8,31.6v-6.3h6.5v-3.1
	l-2-2v3.2h-6.6v6.2h-3.5l2,2H62.8z M62.8,19.4v-1.5h7.8v-3l-2-2v3.3h-7.9v3.3H62.8z"/>
<polygon class="st7" points="16.1,31.6 17.3,28.2 22.8,28.2 22.1,26.2 15.8,26.2 14.6,29.6 10.8,29.6 12.6,31.6 "/>
<polygon class="st7" points="19.1,22.4 20.1,19.9 19,16.9 16.9,22.4 "/>
<polygon class="st0" points="21,22.4 20.3,20.6 19.6,22.4 "/>
<polygon class="st7" points="30.5,31.6 24.3,14.9 21.8,13 27.9,29.6 24.1,29.6 26.5,31.6 "/>
<polygon class="st7" points="37.3,31.6 37.3,22.9 35.6,18.3 35.4,17.6 35.4,29.6 32,29.6 34,31.6 "/>
<polygon class="st7" points="42.2,20.9 40.5,15 38,13 41.4,23.4 "/>
<polygon class="st7" points="44.7,31.6 47.4,23.5 47.4,17.5 47.2,18.3 47.2,18.3 43.2,29.6 40.2,29.6 41.8,31.6 "/>
<polygon class="st7" points="53.6,31.6 53.6,14.9 51.5,12.9 51.5,29.6 48.1,29.6 50.1,31.6 "/>
<polygon class="st7" points="62.8,31.6 62.8,25.3 69.3,25.3 69.3,22.2 67.3,20.2 67.3,23.4 60.7,23.4 60.7,29.6 57.3,29.6 
	59.3,31.6 "/>
<polygon class="st7" points="62.8,19.4 62.8,17.9 70.6,17.9 70.6,14.9 68.7,12.9 68.7,16.2 60.7,16.2 60.7,19.4 "/>
</svg>
