<svg id="Livello_1" data-name="Livello 1" xmlns="http://www.w3.org/2000/svg" viewBox="0 0 78.68 40.58"><defs><style>.cls-1{fill:#f089a4;}.cls-2{fill:#fab851;}.cls-3{fill:#72c2b3;}.cls-4{fill:#4b63ab;}.cls-5{fill:#c99740;}.cls-6{fill:#5b9b8f;}.cls-7{fill:#38497e;}</style></defs><path class="cls-1" d="M36,1.09C29.1,1.83,24.63-.78,16.39.56,9.8,1.64,6.15,4.8,5.35,6,3.17,9.25,3.8,10.54,1.46,18.29c-3.31,11-.13,10.8,1.11,13.54C3.33,33.51-.17,37.62,17,38.26c21.55.79,20.93-2.57,31.89-.51,8.55,1.61,15.06,4.81,20.47,1.13a17.13,17.13,0,0,0,4.27-4.77c1.32-1.89,4.93-7,5-13.81,0-1.78-1-5.45-3-12.81C74.61,3.68,73.41.72,68.8.53,58.41.12,54.42,7.11,47,1.34A6.92,6.92,0,0,0,41.66.1C39.05.52,38.32.84,36,1.09Z"/><path class="cls-2" d="M9.56,26.92,16,9.65h4.89l3.26,2.5L30.56,29.5H25.77l-3-2.5-.32-.9H17.06l-1.18,3.4h-4Zm6,2.15,1.18-3.4H22.3l-.69-2H15.25l-1.18,3.4H10.29l1.79,2Zm3.06-9.15.94-2.5-1.12-3-2.05,5.52Zm1.86,0L19.79,18l-.69,1.88Zm9.45,9.15L23.75,12.42,21.26,10.5l6.16,16.59H23.55l2.39,2Z"/><path class="cls-3" d="M30.72,27V9.65h6.39l3.27,2.63,1.53,5.38,2.62-8h6.36l2.68,2.54V29.5H49.45L46.87,27V22.37L44.45,29.5H41.07L39,27l-1.87-5.28V29.5h-3.9Zm6,2.12V20.43l-1.65-4.66-.19-.67v12H31.46l2,2Zm4.93-10.65L40,12.53l-2.52-2,3.39,10.37Zm2.47,10.65L46.87,21V15l-.23.77h0l-4,11.32H39.7l1.59,2Zm9,0V12.38l-2.1-2V27.09h-3.4l2,2Z"/><path class="cls-4" d="M56,27V9.65H68l2.55,2.55v3.65h-7.8v1.08h3.94l2.55,2.55v3.73H62.75V29.5H58.56Zm6.3,2.12v-6.3H68.8V19.65l-2-2v3.25H60.21v6.17H56.75l2,2Zm0-12.14V15.42h7.8V12.37l-2-2v3.29H60.21v3.25Z"/><polygon class="cls-5" points="15.56 29.07 16.74 25.66 22.3 25.66 21.61 23.69 15.25 23.69 14.07 27.09 10.29 27.09 12.08 29.07 15.56 29.07"/><polygon class="cls-5" points="18.62 19.92 19.56 17.42 18.44 14.39 16.39 19.92 18.62 19.92"/><polygon class="cls-5" points="20.48 19.92 19.79 18.04 19.1 19.92 20.48 19.92"/><polygon class="cls-5" points="29.93 29.07 23.75 12.42 21.26 10.5 27.42 27.09 23.55 27.09 25.93 29.07 29.93 29.07"/><polygon class="cls-6" points="36.73 29.07 36.73 20.43 35.08 15.77 34.89 15.1 34.89 27.09 31.46 27.09 33.44 29.07 36.73 29.07"/><polygon class="cls-6" points="41.66 18.41 39.99 12.53 37.48 10.5 40.86 20.87 41.66 18.41"/><polygon class="cls-6" points="44.13 29.07 46.87 21.01 46.87 14.99 46.64 15.76 46.64 15.77 42.64 27.09 39.7 27.09 41.29 29.07 44.13 29.07"/><polygon class="cls-6" points="53.13 29.07 53.13 12.38 51.03 10.38 51.03 27.09 47.63 27.09 49.62 29.07 53.13 29.07"/><polygon class="cls-7" points="62.31 29.06 62.31 22.77 68.8 22.77 68.8 19.65 66.82 17.67 66.82 20.91 60.21 20.91 60.21 27.08 56.75 27.08 58.73 29.06 62.31 29.06"/><polygon class="cls-7" points="62.31 16.93 62.31 15.41 70.11 15.41 70.11 12.36 68.13 10.38 68.13 13.67 60.21 13.67 60.21 16.93 62.31 16.93"/></svg>