<?xml version="1.0" encoding="utf-8"?>
<!-- Generator: Adobe Illustrator 25.2.2, SVG Export Plug-In . SVG Version: 6.00 Build 0)  -->
<svg version="1.1" id="Livello_1" xmlns="http://www.w3.org/2000/svg" xmlns:xlink="http://www.w3.org/1999/xlink" x="0px" y="0px"
	 viewBox="0 0 62 28" style="enable-background:new 0 0 62 28;" xml:space="preserve">
<style type="text/css">
	.st0{fill:#F9B750;}
	.st1{fill:#72C2B3;}
	.st2{fill:#4B62AA;}
</style>
<path class="st0" d="M0.5,21L6.9,3.8h4.9l3.3,2.5l6.4,17.4h-4.8l-3-2.5l-0.3-0.9H8l-1.2,3.4h-4L0.5,21z M6.5,23.2l1.2-3.4h5.6
	l-0.7-2H6.2L5,21.2H1.2l1.8,2H6.5z M9.6,14l0.9-2.5l-1.1-3L7.3,14H9.6z M11.4,14l-0.7-1.9L10.1,14H11.4z M20.9,23.2L14.7,6.5
	l-2.5-1.9l6.2,16.6h-3.9l2.4,2H20.9z"/>
<path class="st1" d="M21.7,21.1V3.8h6.4l3.3,2.6l1.5,5.4l2.6-8h6.4l2.7,2.5v17.3h-4.1l-2.6-2.5v-4.6l-2.4,7.1H32l-2-2.6l-1.9-5.3
	v7.8h-3.9L21.7,21.1z M27.7,23.2v-8.6L26,9.9l-0.2-0.7v12h-3.4l2,2H27.7z M32.6,12.5l-1.7-5.9l-2.5-2L31.8,15L32.6,12.5z M35.1,23.2
	l2.7-8.1v-6l-0.2,0.8v0l-4,11.3h-2.9l1.6,2H35.1z M44.1,23.2V6.5l-2.1-2v16.7h-3.4l2,2H44.1z"/>
<path class="st2" d="M47,21.1V3.8h12l2.6,2.6V10h-7.8V11h3.9l2.6,2.6v3.7h-6.5v6.3h-4.2L47,21.1z M53.3,23.2v-6.3h6.5v-3.1l-2-2V15
	h-6.6v6.2h-3.5l2,2H53.3z M53.3,11V9.5h7.8v-3l-2-2v3.3h-7.9V11H53.3z"/>
</svg>
